<svg width="8" height="7" viewBox="0 0 8 7" fill="none" xmlns="http://www.w3.org/2000/svg">
<path d="M2.56502 4.47392L6.79821 0.199243C6.92975 0.0664141 7.09716 0 7.30045 0C7.50374 0 7.67115 0.0664141 7.80269 0.199243C7.93423 0.332072 8 0.501127 8 0.706407C8 0.911688 7.93423 1.08074 7.80269 1.21357L3.06726 5.99541C2.92377 6.14031 2.75635 6.21277 2.56502 6.21277C2.37369 6.21277 2.20628 6.14031 2.06278 5.99541L0.197309 4.11166C0.0657695 3.97883 0 3.80977 0 3.60449C0 3.39921 0.0657695 3.23016 0.197309 3.09733C0.328849 2.9645 0.496263 2.89808 0.699552 2.89808C0.90284 2.89808 1.07025 2.9645 1.20179 3.09733L2.56502 4.47392Z" fill="white"/>
</svg>
